<?xml version="1.0" encoding="utf-8"?>
<!-- Generator: Adobe Illustrator 23.0.6, SVG Export Plug-In . SVG Version: 6.00 Build 0)  -->
<svg version="1.1" id="Layer_2" xmlns="http://www.w3.org/2000/svg" xmlns:xlink="http://www.w3.org/1999/xlink" x="0px" y="0px"
	 viewBox="0 0 1104 248.3" style="enable-background:new 0 0 1104 248.3;" xml:space="preserve">
<style type="text/css">
	.st0{filter:url(#Adobe_OpacityMaskFilter);}
	.st1{fill-rule:evenodd;clip-rule:evenodd;fill:#FFFFFF;}
	.st2{mask:url(#mask-2_2_);fill-rule:evenodd;clip-rule:evenodd;fill:#004F9E;}
	.st3{fill-rule:evenodd;clip-rule:evenodd;fill:#152864;}
	.st4{filter:url(#Adobe_OpacityMaskFilter_1_);}
	.st5{mask:url(#mask-4_2_);fill-rule:evenodd;clip-rule:evenodd;fill:#009EE2;}
</style>
<g id="Page-1">
	<g id="LOGO-FINALFINAL" transform="translate(-14.000000, -15.000000)">
		<g id="Group-11" transform="translate(14.000000, 14.000000)">
			<g id="Group-3" transform="translate(0.000000, 0.351300)">
				<g id="Clip-2">
				</g>
				<defs>
					<filter id="Adobe_OpacityMaskFilter" filterUnits="userSpaceOnUse" x="0" y="80" width="159.3" height="159.3">
						<feColorMatrix  type="matrix" values="1 0 0 0 0  0 1 0 0 0  0 0 1 0 0  0 0 0 1 0"/>
					</filter>
				</defs>
				<mask maskUnits="userSpaceOnUse" x="0" y="80" width="159.3" height="159.3" id="mask-2_2_">
					<g class="st0">
						<polygon id="path-1_2_" class="st1" points="0,80 159.3,80 159.3,239.2 0,239.2 						"/>
					</g>
				</mask>
				<path id="Fill-1" class="st2" d="M79.6,80C35.7,80,0,115.6,0,159.6c0,18.2,6.1,34.9,16.3,48.3l66.2-87l-7.1,0l-7.1,0
					c-7.6,0-14.6,0.5-19.8,1.5c-3.1,0.6-5.9,1.7-8.1,3.3c-2.6,1.9-6,5.8-8.1,9.6c-0.2,0.4-0.6,1.1-1.1,2.1l-3.9-0.9l6.5-25h82.9
					l-65.9,88.1c4.3-0.4,6-0.5,9.5-0.5c2.7,0,6.7,0.2,12.2,0.5l11.7,0.7c4.2,0.2,7.8,0.4,10.5,0.4c6,0,10-0.5,13.9-1.7
					c3-0.9,5.9-2.3,8.5-4.1c4.6-3.2,9.1-8.3,11.8-13.5c0.3-0.5,0.7-1.3,1.2-2.4l3.5,0.9c-1.1,4.4-1.7,6-3.5,9.9
					c-3.5,7.9-7.5,13.2-13,17.3c-5.7,4.2-11.9,6.2-19.3,6.4l-1.1,0c-5.5,0-9.7-0.5-22.8-2.5c-13.3-2.1-20.1-2.8-26.8-2.8
					c-4.5,0-8.7,0.3-13,1c-5.7,0.9-8,1.6-13.2,3.9c14.5,15.9,35.5,25.8,58.7,25.8c44,0,79.6-35.7,79.6-79.6
					C159.3,115.6,123.6,80,79.6,80"/>
			</g>
			<path id="Fill-4" class="st3" d="M427.5,155.4c-2.8,1.6-5.6,2.6-9.8,3.1c-1.6,0.2-3,0.4-4.1,0.4c-0.4,0-0.7,0-1.3-0.1v-28.7
				c1,0,1.4,0,2,0c3.8,0,7.5,0.4,10.4,1.3c2,0.6,3.8,1.5,5.3,2.8c2.6,2.2,4,5.5,4,9.5c0,3.5-1,6.5-3,8.8
				C430.2,153.6,429,154.5,427.5,155.4L427.5,155.4z M457.2,193.4c-2.7-2.6-5.2-5.1-8.8-9c-2.3-2.5-4.2-4.6-5.7-6.3l-12-14.2
				c1.5-0.4,2.1-0.7,3.4-1.2c3.9-1.5,6.9-3.3,9.6-5.5c3.1-2.6,5-5.4,6.1-8.9c0.7-2,1-4,1-6c0-4.8-1.8-9.1-5.2-12.7
				c-3.2-3.3-7.6-5.8-12.6-7c-3.5-0.8-7.1-1.2-13.3-1.3c-2.3-0.1-4.7-0.1-7.2-0.1h-20c1.3,1.2,1.8,1.8,2.6,2.9
				c0.6,0.9,1.1,1.9,1.4,2.8c0.5,1.7,0.7,4.2,0.7,8.3v50.9c0,3.7-0.2,5.8-0.9,7.5c-0.4,0.9-0.8,1.7-1.3,2.4
				c-0.7,0.9-1.2,1.4-2.6,2.7H417c-1.1-1.2-1.5-1.6-2.1-2.5c-0.5-0.7-1-1.5-1.3-2.4c-0.7-1.7-1-3.6-1-7.2c0-1.2-0.1-2.5-0.1-3.9
				v-17.5l14.4,17.2c0.7,0.8,1.8,2.1,3.2,3.8c1.7,1.9,2.9,3.3,3.8,4.2c2.8,2.9,5.4,5,8,6.4c2.3,1.2,4.3,1.7,7.7,1.8c1.3,0,2.6,0,4,0
				h9.7c-1.3-1-1.8-1.5-2.8-2.3C459.4,195.6,458.3,194.6,457.2,193.4L457.2,193.4z M489.6,135.6c0-5.2,0.2-6.6,0.8-8.7
				c0.3-0.8,0.7-1.6,1.1-2.4c0.8-1.3,1.4-1.9,2.9-3.2h-24.9c1.6,1.4,2.1,2,2.9,3.1c0.5,0.8,0.9,1.6,1.2,2.5c0.6,1.9,0.8,3.7,0.8,8.3
				c0,2.4,0,3.9,0,4.7v46.4c0,2.7-0.5,5.6-1.2,7.5c-0.3,0.8-0.7,1.6-1.2,2.3c-0.6,0.9-1,1.3-2.4,2.7h24.6c-1.2-1-1.6-1.5-2.4-2.7
				c-0.5-0.8-0.9-1.6-1.2-2.4c-0.7-1.8-1-4.4-1-6.8v-46.8L489.6,135.6z M564,187.6c-4.7,2-8.9,2.9-13.5,2.9c-8,0-14.9-2.9-20-8.3
				c-5-5.4-7.7-13-7.7-21.5c0-8.1,2.5-15.7,7-20.9c1.9-2.3,4.3-4.2,7-5.7c4.4-2.5,9.5-3.7,15-3.7c4.7,0,9.3,0.9,13.9,2.8
				c2.9,1.2,3.9,1.8,6.4,3.5V122c-1.9-0.6-2.7-0.8-4.7-1.3c-4.5-0.9-8.8-1.4-13.7-1.4c-8.3,0-15.5,1.3-22.1,4.1
				c-3.9,1.6-7.5,3.8-10.7,6.3c-9.6,7.7-14.8,18.8-14.8,31.7c0,12.5,5,23.3,14.2,30.5c7.6,6,17.3,9,29,9c7.3,0,14.1-1.1,21.8-3.5
				c0.3-0.1,0.7-0.2,1.3-0.4V183c-1.9,1.2-2.5,1.6-3.6,2.3C567.3,186.1,565.7,186.9,564,187.6L564,187.6z M655.4,135.6
				c0-3.5,0.3-6.1,0.9-8.2c0.3-1,0.7-2,1.2-2.9c0.8-1.3,1.4-2,3.1-3.2h-25.3c1.5,1.2,2,1.8,2.8,3.2c0.6,0.9,1,1.8,1.3,2.7
				c0.6,1.8,0.8,4.1,0.8,8.2v18.8h-34.8V140c0-4.3,0-7.1,0.2-9.2c0.1-1.3,0.3-2.4,0.6-3.4c0.5-1.7,1.9-4,3.2-5.3
				c0.2-0.2,0.5-0.5,0.9-0.8h-24.9c1.5,1.5,1.9,2,2.6,3c0.5,0.8,1,1.7,1.3,2.6c0.6,2,0.8,3,0.8,8.2l0.1,4.9v42.5
				c0,4.3-0.1,6.2-0.3,8.2c-0.1,1-0.4,2-0.8,3.1c-0.6,1.7-1.5,3-3,4.3c-0.2,0.2-0.5,0.4-0.8,0.8h24.6c-1.1-1.1-1.4-1.6-2.1-2.6
				c-0.4-0.7-0.9-1.5-1.2-2.4c-0.8-2.1-1-3.5-1.1-6.8c0-1.7,0-3.2,0-4.6v-18.8h34.8v18.9c0,4.2,0,5.7-0.4,7.9
				c-0.1,1.2-0.4,2.3-0.8,3.4c-0.6,1.5-1.4,2.8-2.8,4.1c-0.2,0.2-0.6,0.5-1.1,1h24.8c-1-1-1.4-1.4-2.1-2.4c-0.6-0.9-1.1-1.7-1.4-2.5
				c-0.8-1.8-0.9-3.2-1-7c0-2.3-0.1-3.6-0.1-4l0.1-42.7V135.6z M272.7,187.9c-3.4,0.6-7.3,1-12.2,1.1c-1.6,0-3.7,0-6.2,0h-11.9
				l47-67.8h-61l-7.5,16.6c2.5-1.3,3.5-1.8,5.7-2.7c3.5-1.4,7.3-2.5,11-3.1c3.2-0.5,6.2-0.8,10.9-0.9c2.2-0.1,4.2-0.1,6-0.1h9
				l-47.5,67.8h67.1l7.7-17.7c-2.7,1.5-3.6,2-5.7,3C281.3,185.9,277.1,187.2,272.7,187.9L272.7,187.9z M357.8,124.3
				c0.5,0.8,0.9,1.7,1.1,2.6c0.5,1.9,0.7,3.8,0.7,8.1v29.5c0,6.3-0.2,10.1-0.7,13.2c-0.3,2.1-1,4-2,5.7c-1.9,3.2-5.4,5.6-9.5,6.6
				c-1.7,0.4-3.5,0.6-5.5,0.6c-6.7,0-12.4-2.5-15.2-6.6c-2.1-3.2-2.7-6.2-2.8-14.2l-0.1-6.4v-23.4c0-4.5,0-6.7,0.2-9
				c0.1-1.4,0.3-2.6,0.6-3.6c0.5-1.8,1.9-4.2,3.1-5.6c0.2-0.2,0.4-0.4,0.7-0.7h-25.2c1.6,1.3,2,1.9,2.8,3.1c0.5,0.8,0.9,1.8,1.1,2.7
				c0.3,1.2,0.5,2.4,0.5,3.6c0,0.8,0,2.4,0,4.8l0,4.5v22.2c0,8.2,0,10.3,0.3,13.7c0.5,5.7,2.2,10.2,5.4,14.3
				c5.9,7.4,15.3,11.3,27.4,11.3c5.8,0,11.3-0.9,15.6-2.5c4.5-1.7,8.6-4.4,11.6-7.7c3.6-4,5.6-9,6.3-15.1c0.4-3.5,0.5-7.8,0.5-13.8
				V140l-0.1-4.4v-0.9c0-3.3,0.2-5.3,0.7-7.1c0.3-1.1,0.7-2.2,1.3-3.1c0.8-1.3,1.4-1.9,3-3.2H355C356.5,122.5,357,123,357.8,124.3
				L357.8,124.3z"/>
			<path id="Fill-6" class="st3" d="M684.8,101.4v-4.7h1.3c1.8,0,3.3,0.1,3.3,2.3c0,1.8-1.8,2.4-3.3,2.4H684.8z M687.9,102
				L687.9,102c1.6-0.2,2.9-1.4,2.9-3.1c0-2.4-1.5-3.5-3.9-3.5h-3.4v13.3h1.3v-6.2h1.1c1.3,0,2.2,0,2.9,1.8l1.9,4.5h1.5l-2.3-5.1
				C689.4,102.7,688.9,102.2,687.9,102L687.9,102z M687.3,111.7c-5.3,0-9.6-4.3-9.6-9.6c0-5.3,4.3-9.6,9.6-9.6
				c5.3,0,9.7,4.3,9.7,9.6C697,107.4,692.7,111.7,687.3,111.7L687.3,111.7z M687.3,91.2c-6,0-10.8,4.9-10.8,10.9
				c0,6,4.9,10.9,10.8,10.9c6,0,10.9-4.9,10.9-10.9C698.2,96.1,693.4,91.2,687.3,91.2L687.3,91.2z"/>
		</g>
	</g>
</g>
</svg>
